<svg width="24" height="24" viewBox="0 0 24 24" fill="none" xmlns="http://www.w3.org/2000/svg">
<mask id="mask0_1863_1208" style="mask-type:alpha" maskUnits="userSpaceOnUse" x="0" y="0" width="24" height="24">
<rect width="24" height="24" fill="#D9D9D9"/>
</mask>
<g mask="url(#mask0_1863_1208)">
<path d="M6 14.025H13.825V12.525H6V14.025ZM6 10.775H18V9.275H6V10.775ZM6 7.525H18V6.025H6V7.525ZM12 22L9.4 18.075H3.5C3.0875 18.075 2.73442 17.9281 2.44075 17.6342C2.14692 17.3406 2 16.9875 2 16.575V3.5C2 3.0875 2.14692 2.73433 2.44075 2.4405C2.73442 2.14683 3.0875 2 3.5 2H20.5C20.9125 2 21.2657 2.14683 21.5595 2.4405C21.8532 2.73433 22 3.0875 22 3.5V16.575C22 16.9875 21.8532 17.3406 21.5595 17.6342C21.2657 17.9281 20.9125 18.075 20.5 18.075H14.6L12 22Z" fill="#FAFAFA"/>
</g>
</svg>
